# xmcd CD database file
#
# Track frame offsets:
#	150
#	17133
#	38806
#	54850
#	70821
#
# Disc length: 1113 seconds
#
# Revision: 0
# Processed by: cddbd v1.5.2PL0 Copyright (c) Steve Scherf et al.
# Submitted via: jetAudio 7
#
DISCID=37045705
DTITLE=FrontCountry - This is Front Country
DYEAR=1900
DGENRE=Bluegrass
TTITLE0=Blue Blue Feeling
TTITLE1=Gold Rush Goddess
TTITLE2=Simpler Times
TTITLE3=The Way It Is
TTITLE4=Bechamel
EXTD=
EXTT0=
EXTT1=
EXTT2=
EXTT3=
EXTT4=
PLAYORDER=
